# xmcd CD database file
#
# Track frame offsets:
#	150
#	22560
#	42955
#	65085
#	83042
#	96610
#	114980
#	139865
#	162417
#
# Disc length: 2516 seconds
#
# Revision: 4
# Processed by: cddbd v1.5PL3 Copyright (c) Steve Scherf et al.
# Submitted via: CDex 1.50beta10
#
DISCID=7109d209
DTITLE=LAZY - 宇宙船地球号
DYEAR=1980
DGENRE=Hard Rock
TTITLE0=Dreamer
TTITLE1=Dreamy Express Trip
TTITLE2=天使が見たものは
TTITLE3=Time Gap
TTITLE4=遥かなるマザーランド
TTITLE5=Earth Ark (宇宙船地球号)
TTITLE6=僕らの国でも
TTITLE7=美しい予感
TTITLE8=Lonely Star
EXTD=YEAR: 1980
EXTT0=
EXTT1=
EXTT2=
EXTT3=
EXTT4=
EXTT5=
EXTT6=
EXTT7=
EXTT8=
PLAYORDER=
